<svg version="1" xmlns="http://www.w3.org/2000/svg" width="533.333" height="533.333" viewBox="0 0 400.000000 400.000000"><path d="M184.9.4c-.2.2-3.6.6-7.5.9-3.9.4-7.7.9-8.5 1.1-.8.3-3 .7-4.9 1-1.9.2-4.6.7-6 1-1.4.4-3.8.9-5.5 1.1-1.6.3-9.1 2.6-16.5 5.1-34.7 11.7-65.2 32.6-89.1 60.9-1.9 2.2-3.7 4.2-4 4.5-1.4 1.2-12 17.1-16.1 24-11.9 20.4-21.1 46.6-24.4 69.5-.3 2.2-.8 5.1-1.1 6.5-.3 1.4-.6 11-.8 21.5-.2 14.5.2 22 1.7 31.5C12.2 296.4 55 353.4 117 381.9c19 8.8 38.6 14.2 60.5 16.8 12.1 1.5 48.1.7 53.6-1.1.8-.3 3-.7 4.9-1 1.9-.2 4.6-.7 6-1 1.4-.4 3.7-.8 5.2-1.1 1.5-.3 6.5-1.7 11-3.1 65.4-20.6 114.4-70.2 133.7-135.4 3.3-10.8 5.1-20.1 7.1-35 1.2-9.4.4-42.1-1.4-52-10.1-58.5-41-105.7-89.6-137.3-8.5-5.5-26.3-14.8-31-16.2-1.4-.4-2.9-1.1-3.5-1.5-1-.8-18.7-6.7-22.1-7.5-13.7-2.9-21.8-4.5-25.9-5-5.5-.7-40-1.6-40.6-1.1zM228.5 63c23.7 5.3 45.1 15.8 62 30.4 25 21.7 40.2 47.8 47.1 80.6 2.5 12 2.4 48.9-.1 53-.2.4-.7 2.1-1 3.8-1.2 6.8-5.9 20.1-10.5 29.8-15.9 33.2-44.7 59.1-79.1 71.2-19.2 6.8-42.4 9.5-61.9 7.3-12-1.4-12.9-1.6-23.4-4.6-48.3-14-84.9-51.8-97.2-100.4-3.5-13.7-4.3-21.8-3.9-38.6.6-21.9 4.3-36.9 14.2-57.3 5.4-11.1 13.9-23.7 21.7-32.1 8.5-9 9.7-10.2 16.3-15.3 3.7-2.9 7-5.5 7.3-5.8.5-.5 1.4-1 12.7-7.5 13.1-7.6 34.2-14.6 48.2-16.1 3.1-.3 5.8-.8 6-1 .2-.2 7.4-.2 16 0 11.4.3 18.3 1 25.6 2.6z"/></svg>