<?xml version="1.0" encoding="UTF-8" standalone="no"?>
<svg
   xmlns:dc="http://purl.org/dc/elements/1.1/"
   xmlns:cc="http://creativecommons.org/ns#"
   xmlns:rdf="http://www.w3.org/1999/02/22-rdf-syntax-ns#"
   xmlns:svg="http://www.w3.org/2000/svg"
   xmlns="http://www.w3.org/2000/svg"
   xmlns:sodipodi="http://sodipodi.sourceforge.net/DTD/sodipodi-0.dtd"
   xmlns:inkscape="http://www.inkscape.org/namespaces/inkscape"
   version="1.1"
   width="841.88977"
   height="595.27557"
   id="svg22"
   viewBox="0 0 841.88977 595.27557"
   sodipodi:docname="logo.svg"
   inkscape:version="1.0.1 (3bc2e813f5, 2020-09-07)">
  <metadata
     id="metadata28">
    <rdf:RDF>
      <cc:Work
         rdf:about="">
        <dc:format>image/svg+xml</dc:format>
        <dc:type
           rdf:resource="http://purl.org/dc/dcmitype/StillImage" />
        <dc:title />
      </cc:Work>
    </rdf:RDF>
  </metadata>
  <defs
     id="defs26">
    <rect
       x="-383.25188"
       y="183.84776"
       width="26.870058"
       height="182.43355"
       id="rect903" />
    <rect
       x="-270.11479"
       y="149.90664"
       width="526.08745"
       height="458.20519"
       id="rect897" />
    <rect
       x="697.91439"
       y="240.4163"
       width="338.70414"
       height="54.447222"
       id="rect1455" />
  </defs>
  <sodipodi:namedview
     pagecolor="#ffffff"
     bordercolor="#666666"
     borderopacity="1"
     objecttolerance="10"
     gridtolerance="10"
     guidetolerance="10"
     inkscape:pageopacity="0"
     inkscape:pageshadow="2"
     inkscape:window-width="1920"
     inkscape:window-height="1001"
     id="namedview24"
     showgrid="false"
     inkscape:zoom="0.5"
     inkscape:cx="345.23212"
     inkscape:cy="-298.68666"
     inkscape:window-x="-9"
     inkscape:window-y="-9"
     inkscape:window-maximized="1"
     inkscape:current-layer="Layer1000"
     inkscape:document-rotation="0" />
  <g
     id="Layer1000">
    <g
       id="g925"
       inkscape:export-filename="C:\Users\cema9\g925.png"
       inkscape:export-xdpi="18.285099"
       inkscape:export-ydpi="18.285099">
      <g
         id="g913"
         transform="matrix(1.5048982,0,0,1.5048982,-34.855158,-92.389115)">
        <path
           d="M 113.4523,99.703 A 85.0398,85.0397 0 0 1 198.492,184.7427 85.0398,85.0397 0 1 1 113.4523,99.703 Z"
           style="fill:none;stroke:#2db000;stroke-width:11.3386;stroke-linecap:butt;stroke-linejoin:miter;stroke-miterlimit:4;stroke-dasharray:none;stroke-dashoffset:0"
           id="path10" />
        <g
           id="Layer1001">
          <g
             id="Layer1002">
            <path
               d="m 170.8515,147.9276 -8.6261,-4e-4 1e-4,-8.9295 c 0,-2.0444 -1.4958,-3.7813 -3.5178,-4.0837 -0.353,-0.0531 -8.7566,-1.2737 -18.876,0.5676 -11.2812,2.0526 -20.2782,7.1146 -26.3801,14.767 -6.1024,-7.6524 -15.0994,-12.7144 -26.3801,-14.767 -10.1198,-1.8409 -18.5235,-0.6207 -18.8761,-0.5676 -2.022,0.3029 -3.5177,2.0397 -3.5177,4.0837 v 8.9294 l -8.6262,1e-4 c -2.2801,0 -4.1293,1.8491 -4.1293,4.1296 v 77.815 c 0,1.3371 0.6472,2.5913 1.7373,3.3661 1.0901,0.7748 2.4877,0.9737 3.7502,0.5336 0.3099,-0.1073 31.254,-10.668 54.3281,-0.1429 1.0889,0.4968 2.339,0.4968 3.4279,0 23.0094,-10.4952 54.0198,0.0365 54.3281,0.1429 0.4425,0.1542 0.9008,0.23 1.3574,0.23 0.8465,0 1.6843,-0.2602 2.3928,-0.7632 1.0901,-0.7748 1.7373,-2.029 1.7373,-3.3661 v -77.8149 c -4e-4,-2.2806 -1.8492,-4.1297 -4.1298,-4.1297 z m -110.6703,76.419 v -68.1604 h 4.4964 v 54.9935 c 0,1.1999 0.525,2.3394 1.4328,3.1237 0.9078,0.7844 2.1152,1.1361 3.3018,0.9609 0.2279,-0.0332 18.1671,-2.496 31.2735,6.4964 -16.1446,-2.7608 -32.3031,0.4326 -40.5045,2.5859 z m 49.141,-6.31 c -5.7725,-5.2157 -13.2915,-8.7425 -22.2508,-10.3725 -4.3116,-0.7848 -8.3116,-1.0135 -11.5104,-1.0135 -0.9496,0 -1.8289,0.0203 -2.624,0.0522 l 1e-4,-63.9131 h -4e-4 c 7.9366,-0.358 27.2436,0.4906 36.3855,15.9881 z m 8.2587,-59.2583 c 9.1092,-15.4312 28.4464,-16.3184 36.3855,-15.9782 v 63.9027 c -3.4734,-0.1401 -8.5436,-0.0564 -14.1347,0.9612 -8.9592,1.63 -16.4783,5.1565 -22.2508,10.3726 z m 8.6228,62.9848 c 13.108,-8.9978 31.0567,-6.5324 31.2805,-6.4993 1.1895,0.1786 2.3961,-0.1711 3.3068,-0.9551 0.9107,-0.7847 1.4345,-1.9266 1.4345,-3.1291 v -54.993 h 4.4964 v 68.16 c -8.204,-2.1542 -24.369,-5.3487 -40.5182,-2.5835 z"
               style="fill:#696969;fill-rule:evenodd"
               id="path12" />
          </g>
        </g>
        <g
           id="Layer1003"
           transform="matrix(1.0215009,0,0,1.060615,-2.427567,-8.8394596)"
           style="stroke:#ffffff;stroke-width:3.84292;stroke-linecap:square;stroke-linejoin:round;stroke-miterlimit:4;stroke-dasharray:none;stroke-opacity:1;paint-order:stroke markers fill">
          <path
             d="m 121.3362,170.1775 c -0.6199,0 -1.2779,-0.4785 -1.47,-1.0679 l -6.0673,-18.6727 c -0.192,-0.5896 -0.5019,-0.5896 -0.6939,0 l -6.0663,18.6726 c -0.1921,0.5897 -0.8501,1.0679 -1.47,1.0679 l -19.6338,1e-4 c -0.6199,0 -0.7164,0.2953 -0.2145,0.6603 l 15.8832,11.5384 c 0.5019,0.365 0.7535,1.1387 0.5614,1.7283 l -6.0662,18.6715 c -0.192,0.5896 0.0596,0.7725 0.5615,0.4076 l 15.8832,-11.5384 c 0.5019,-0.3649 1.315,-0.3649 1.817,0 l 15.8832,11.5396 c 0.5019,0.3649 0.7535,0.1819 0.5614,-0.4077 l -6.0663,-18.6715 c -0.192,-0.5896 0.0596,-1.3633 0.5614,-1.7283 l 15.8833,-11.5384 c 0.5019,-0.3649 0.4053,-0.6603 -0.2146,-0.6603 h -19.6327 z"
             style="fill:#2db000;fill-rule:evenodd;stroke:#ffffff;stroke-width:3.84292;stroke-linecap:square;stroke-linejoin:round;stroke-miterlimit:4;stroke-dasharray:none;stroke-opacity:1;paint-order:stroke markers fill"
             id="path16" />
        </g>
      </g>
      <text
         xml:space="preserve"
         style="font-size:136px;line-height:0;font-family:'Myriad Pro';-inkscape-font-specification:'Myriad Pro';letter-spacing:-5.5px;opacity:1;fill:#aa0000;stroke-width:1.51033;stroke-miterlimit:4;stroke-dasharray:none"
         x="328.87341"
         y="163.20792"
         id="text1449"
         transform="scale(1.0074964,0.99255937)"><tspan
           style="font-style:normal;font-variant:normal;font-weight:normal;font-stretch:normal;font-size:136px;line-height:127px;font-family:'Myriad Pro';-inkscape-font-specification:'Myriad Pro';fill:#696969;fill-opacity:1;stroke-width:1.51033"
           id="tspan1485"
           sodipodi:role="line"
           x="328.87341"
           y="163.20792"
           dx="0">ЦЭНТР ПРАВОЎ</tspan><tspan
           sodipodi:role="line"
           x="328.87341"
           y="290.20792"
           id="tspan1451"
           style="font-style:normal;font-variant:normal;font-weight:normal;font-stretch:normal;font-size:136px;line-height:127px;font-family:'Myriad Pro';-inkscape-font-specification:'Myriad Pro';letter-spacing:5px;fill:#696969;fill-opacity:1;stroke-width:1.51033;stroke-miterlimit:4;stroke-dasharray:none">ПРЫЗЫЎНІКА</tspan></text>
    </g>
    <text
       xml:space="preserve"
       id="text1453"
       style="line-height:1.25;font-family:'Myriad Pro';font-size:40px;-inkscape-font-specification:'Myriad Pro';white-space:pre;shape-inside:url(#rect1455);" />
    <text
       xml:space="preserve"
       id="text895"
       style="fill:black;fill-opacity:1;line-height:1.25;stroke:none;font-family:sans-serif;font-style:normal;font-weight:normal;font-size:40px;white-space:pre;shape-inside:url(#rect897);" />
    <text
       xml:space="preserve"
       id="text901"
       style="fill:black;fill-opacity:1;line-height:1.25;stroke:none;font-family:sans-serif;font-style:normal;font-weight:normal;font-size:40px;white-space:pre;shape-inside:url(#rect903);" />
  </g>
</svg>
